
<svg version="1.1" id="Layer_1" xmlns="http://www.w3.org/2000/svg" xmlns:xlink="http://www.w3.org/1999/xlink" x="0px" y="0px"
	 viewBox="0 0 1600 792" style="enable-background:new 0 0 1600 792;" xml:space="preserve">
<style type="text/css">
	.st0{fill-rule:evenodd;clip-rule:evenodd;fill:#B12226;}
	.st1{opacity:0.1;clip-path:url(#SVGID_2_);}
	.st2{fill:#221F1F;}
	.st3{fill:#FFFFFF;}
	.st4{opacity:0.1;clip-path:url(#SVGID_4_);fill:#221F1F;}
	.st5{fill:#434244;}
	.st6{opacity:0.1;clip-path:url(#SVGID_6_);}
	.st7{opacity:0.1;clip-path:url(#SVGID_8_);fill:#221F1F;}
	.st8{opacity:0.1;fill-rule:evenodd;clip-rule:evenodd;fill:#221F1F;}
	.st9{fill-rule:evenodd;clip-rule:evenodd;fill:#BD2428;}
	.st10{opacity:0.1;fill:#221F1F;}
	.st11{fill:#383739;}
	.st12{opacity:0.3;fill:#221F1F;}
	.st13{fill:#F7A91B;}
	.st14{clip-path:url(#SVGID_10_);fill:#301C0F;}
	.st15{clip-path:url(#SVGID_10_);}
	.st16{fill:#543521;}
	.st17{fill:#BCD1ED;}
	.st18{fill:#7CA2D5;}
	.st19{fill:#9BBBE2;}
</style>
<g id="marjvena">

	<path class="st0" d="M879.8,310.3c0,0,25.2-96.9,16.9-100c-8.3-3-66.8-12.2-69.1-11.6c-8.8,27.5-15.7,72.3-15.7,72.3l45.5,26.6
		L879.8,310.3z"/>
	<g>
		<defs>
			<path id="SVGID_1_" d="M879.8,310.3c0,0,25.2-96.9,16.9-100c-8.3-3-66.8-12.2-69.1-11.6c-8.8,27.5-19.1,79.1-19.1,79.1
				L879.8,310.3z"/>
		</defs>
		<clipPath id="SVGID_2_">
			<use xlink:href="#SVGID_1_"  style="overflow:visible;"/>
		</clipPath>
		<g class="st1">
			<path class="st2" d="M821.5,193.6c0.2-1.2,0.7-2.5,1.5-3.6c4-6.2,10.5-6.9,22.6-4.4c12.2,2.5,30,6,43.9,8.1
				c13.9,2.1,17.8,5.5,19,12.8c1.2,7.2-5.4,13.2-14.7,13.4c-11.5,0.3-55.8-8.2-62.8-11.9C824.2,204.3,820.5,199.1,821.5,193.6z"/>
		</g>
	</g>
	<g>
		<path class="st3" d="M822,191.1c0.2-1.2,0.7-2.5,1.5-3.6c4-6.2,10.5-6.9,22.6-4.4c12.2,2.5,30,6,43.9,8.1
			c13.9,2.2,17.8,5.5,19,12.8c1.2,7.2-5.4,13.2-14.7,13.4c-11.5,0.3-55.8-8.2-62.8-11.9C824.6,201.8,821,196.5,822,191.1z"/>
	</g>
	<g>
		<defs>
			<path id="SVGID_3_" d="M822,191.1c0.2-1.2,0.7-2.5,1.5-3.6c4-6.2,10.5-6.9,22.6-4.4c12.2,2.5,30,6,43.9,8.1
				c13.9,2.2,17.8,5.5,19,12.8c1.2,7.2-5.4,13.2-14.7,13.4c-11.5,0.3-55.8-8.2-62.8-11.9C824.6,201.8,821,196.5,822,191.1z"/>
		</defs>
		<clipPath id="SVGID_4_">
			<use xlink:href="#SVGID_3_"  style="overflow:visible;"/>
		</clipPath>
		<path class="st4" d="M828.9,169.9c25.1,4.9,54.3,10.6,81.7,15.9c-3.5,18-24.3,27.4-46.9,23C841.1,204.5,825.4,187.9,828.9,169.9z"
			/>
	</g>
	<path class="st5" d="M829.6,166.1c25.1,4.9,54.3,10.6,81.7,15.9c-3.5,18-24.6,28.9-47.2,24.5C841.6,202.1,826.1,184,829.6,166.1z"/>

	
	  	<animateTransform attributeName="transform"
		    type="translate"
		    values="0;8;0"
		    from="0 0"
		    to="8 8"
		    begin="0s"
		    dur="1000ms"
		    fill="freeze"
		    repeatCount="indefinite"
	  	/>

	  
</g>
<g id="marcxena">
	<path class="st0" d="M708.8,311.2c0,0-27.1-96.4-18.9-99.6c8.3-3.2,66.5-13.5,68.8-13c9.3,27.3,15.8,68.1,15.8,68.1l-23.6,27.5
		L708.8,311.2z"/>
	<g>
		<defs>
			<path id="SVGID_5_" d="M708.8,311.2c0,0-27.1-96.4-18.9-99.6c8.3-3.2,66.5-13.5,68.8-13c9.3,27.3,12.9,50.3,12.9,50.3
				L708.8,311.2z"/>
		</defs>
		<clipPath id="SVGID_6_">
			<use xlink:href="#SVGID_5_"  style="overflow:visible;"/>
		</clipPath>
		<g class="st6">
			<path class="st2" d="M764.7,193.4c-0.3-1.2-0.8-2.5-1.5-3.6c-4.1-6.1-10.6-6.7-22.7-3.9c-12.1,2.7-29.9,6.6-43.7,9
				c-13.9,2.4-17.7,5.9-18.8,13.1c-1.1,7.3,5.7,13,15,13.1c11.5,0.1,55.7-9.4,62.5-13.2C762.3,204.1,765.8,198.8,764.7,193.4z"/>
		</g>
	</g>
	<g>
		<path class="st3" d="M764.2,190.9c-0.3-1.2-0.8-2.5-1.5-3.6c-4.1-6.1-10.6-6.7-22.7-3.9c-12.1,2.7-29.9,6.6-43.7,9
			c-13.9,2.4-17.7,5.9-18.8,13.1c-1.1,7.3,5.7,13,15,13.1c11.5,0.1,55.7-9.4,62.5-13.2C761.8,201.6,765.3,196.3,764.2,190.9z"/>
	</g>
	<g>
		<defs>
			<path id="SVGID_7_" d="M764.2,190.9c-0.3-1.2-0.8-2.5-1.5-3.6c-4.1-6.1-10.6-6.7-22.7-3.9c-12.1,2.7-29.9,6.6-43.7,9
				c-13.9,2.4-17.7,5.9-18.8,13.1c-1.1,7.3,5.7,13,15,13.1c11.5,0.1,55.7-9.4,62.5-13.2C761.8,201.6,765.3,196.3,764.2,190.9z"/>
		</defs>
		<clipPath id="SVGID_8_">
			<use xlink:href="#SVGID_7_"  style="overflow:visible;"/>
		</clipPath>
		<path class="st7" d="M756.9,169.9c-25,5.4-54.1,11.7-81.4,17.6c3.9,17.9,24.9,26.9,47.4,22C745.3,204.6,760.8,187.8,756.9,169.9z"
			/>
	</g>
	<path class="st5" d="M756.1,166c-25,5.4-54.1,11.7-81.4,17.6c3.9,17.9,25.2,28.4,47.7,23.6C744.8,202.3,759.9,183.9,756.1,166z"/>

	<animateTransform attributeName="transform"
		    type="translate"
		    values="0;-12;0"
		    from="0 0"
		    to="-5 -12"
		    begin="0s"
		    dur="1000ms"
		    fill="freeze"
		    repeatCount="indefinite"
	  	/>
	
</g>
<g id="Body">
	<g>
		<path class="st0" d="M701.8,314.3c0-40.4,41.7-73.1,93.1-73.1c51.4,0,93.1,32.7,93.1,73.1c-18.3-18.3-31.3-41-82.7-41
			C753.9,273.3,716.3,285.2,701.8,314.3z"/>
		<path class="st8" d="M726.9,438.5c8.5,18.5,38.5,26.4,68.1,26.3c29.6,0.1,59.6-7.8,68.1-26.3c16.8-36.8,41-98.7,22.1-147.7
			c-9.6-25-49.9-31.6-90.2-32.2c-40.3,0.5-80.5,7.2-90.1,32.2C685.9,339.9,710.1,401.7,726.9,438.5z"/>
	</g>
	<path class="st9" d="M726.6,443.4c8.5,18.5,38.5,26.4,68.1,26.3c29.6,0.1,59.6-7.8,68.1-26.3c16.8-36.8,41-98.7,22.1-147.7
		c-9.6-25-49.9-31.6-90.1-32.2c-40.3,0.5-80.5,7.2-90.2,32.2C685.5,344.8,709.7,406.6,726.6,443.4z"/>
	<path class="st3" d="M797.7,467.2l-7.2,0c0.7-142.7,0-203,0-203.6l7.2-0.1C797.7,264.1,798.4,324.4,797.7,467.2z"/>
	<g>
		<path class="st10" d="M697.5,336.4c1.4-0.3,25.1-16.8,72.1-19.2c1.4,7.3,7.8,12.9,15.5,12.9h19.2c7.6,0,13.9-5.3,15.4-12.4
			c52.5,4.2,71.7,20,71.9,20.1c-0.1-0.9,1-16.9,1-16.9c-2.5-3.9-11.9-21.7-72.8-25.6c-1.5-7.1-7.9-12.5-15.4-12.5h-19.2
			c-7.5,0-13.7,5.2-15.4,12.2c-35.6,1.7-55.4,7.4-66.4,13.2C695.2,312.5,697.8,331.8,697.5,336.4z M785.1,294.3h19.2
			c0.6,0,1.2,0.1,1.8,0.4c-4.1-0.1-8.5-0.2-13.1-0.2c-3.3,0-6.4,0-9.5,0.1C784.1,294.4,784.6,294.3,785.1,294.3z"/>
		<path class="st11" d="M697.5,336.1c0-1.6,0-1.3,0-2.1c4.7-2,25.2-19.6,95.7-20.1v0c72.7,0,93.6,18.1,98.4,20.1c0,0.8,0,0.5,0,2.1
			c2.2,0,8.9-19.4,0-25.4c-11.5-7.8-38.1-18.6-95.7-19v-0.1c-59.4,0-86.7,11.1-98.4,19C688.7,316.6,695.4,336.1,697.5,336.1z"/>
		<path class="st5" d="M804.2,315c2.4,0,4.3-1.9,4.3-4.3v-15.8c0-2.4-1.9-4.3-4.3-4.3H785c-2.4,0-4.3,1.9-4.3,4.3v15.8
			c0,2.4,1.9,4.3,4.3,4.3H804.2z"/>
		<rect x="777.6" y="288.1" class="st12" width="34.3" height="5.7"/>
		<g>
			<path class="st13" d="M785,279.1h19.2c8.7,0,15.8,7.1,15.8,15.8v15.8c0,8.7-7.1,15.8-15.8,15.8H785c-8.7,0-15.8-7.1-15.8-15.8
				v-15.8C769.2,286.2,776.3,279.1,785,279.1z M804.2,315c2.4,0,4.3-1.9,4.3-4.3v-15.8c0-2.4-1.9-4.3-4.3-4.3H785
				c-2.4,0-4.3,1.9-4.3,4.3v15.8c0,2.4,1.9,4.3,4.3,4.3H804.2z"/>
		</g>
	</g>
</g>
<g id="Mainy">
	<g id="Clip">
		<defs>
			<path id="SVGID_9_" d="M890.1,476.5l-195.9-2.4l2.1-142.5c0-1.8,1.5-3.3,3.3-3.3h190.5c1.8,0,3.3,1.5,3.3,3.3L890.1,476.5z"/>
		</defs>
		<clipPath id="SVGID_10_">
			<use xlink:href="#SVGID_9_"  style="overflow:visible;"/>
		</clipPath>
		<path class="st14" d="M893.3,522.3c0,1.8-1.5,3.3-3.3,3.3H699.6c-1.8,0-3.3-1.5-3.3-3.3V331.6c0-1.8,1.5-3.3,3.3-3.3h190.5
			c1.8,0,3.3,1.5,3.3,3.3V522.3z"/>
		<g class="st15">
			<path class="st16" d="M693,354.6h54.7c1.8,0,3.3-1.5,3.3-3.3V336c0-1.8-1.5-3.3-3.3-3.3H693c-1.8,0-3.3,1.5-3.3,3.3v15.3
				C689.7,353.1,691.2,354.6,693,354.6z"/>
			<path class="st16" d="M759.8,354.6h54.7c1.8,0,3.3-1.5,3.3-3.3V336c0-1.8-1.5-3.3-3.3-3.3h-54.7c-1.8,0-3.3,1.5-3.3,3.3v15.3
				C756.5,353.1,758,354.6,759.8,354.6z"/>
			<path class="st16" d="M826.6,354.6h54.7c1.8,0,3.3-1.5,3.3-3.3V336c0-1.8-1.5-3.3-3.3-3.3h-54.7c-1.8,0-3.3,1.5-3.3,3.3v15.3
				C823.4,353.1,824.8,354.6,826.6,354.6z"/>
			<path class="st16" d="M948.1,332.7h-54.7c-1.8,0-3.3,1.5-3.3,3.3v15.3c0,1.8,1.5,3.3,3.3,3.3h54.7c1.8,0,3.3-1.5,3.3-3.3V336
				C951.4,334.2,949.9,332.7,948.1,332.7z"/>
			<path class="st16" d="M665.7,380.7h54.7c1.8,0,3.3-1.5,3.3-3.3v-15.3c0-1.8-1.5-3.3-3.3-3.3h-54.7c-1.8,0-3.3,1.5-3.3,3.3v15.3
				C662.5,379.2,663.9,380.7,665.7,380.7z"/>
			<path class="st16" d="M787.2,358.8h-54.7c-1.8,0-3.3,1.5-3.3,3.3v15.3c0,1.8,1.5,3.3,3.3,3.3h54.7c1.8,0,3.3-1.5,3.3-3.3v-15.3
				C790.5,360.3,789,358.8,787.2,358.8z"/>
			<path class="st16" d="M854.1,380.7c1.8,0,3.3-1.5,3.3-3.3v-15.3c0-1.8-1.5-3.3-3.3-3.3h-54.7c-1.8,0-3.3,1.5-3.3,3.3v15.3
				c0,1.8,1.5,3.3,3.3,3.3H854.1z"/>
			<path class="st16" d="M923.3,377.4v-15.3c0-1.8-1.5-3.3-3.3-3.3h-54.7c-1.8,0-3.3,1.5-3.3,3.3v15.3c0,1.8,1.5,3.3,3.3,3.3h54.7
				C921.9,380.7,923.3,379.2,923.3,377.4z"/>
			<path class="st16" d="M686.7,389.1v15.3c0,1.8,1.5,3.3,3.3,3.3h54.7c1.8,0,3.3-1.5,3.3-3.3v-15.3c0-1.8-1.5-3.3-3.3-3.3H690
				C688.2,385.8,686.7,387.2,686.7,389.1z"/>
			<path class="st16" d="M753.6,389.1v15.3c0,1.8,1.5,3.3,3.3,3.3h54.7c1.8,0,3.3-1.5,3.3-3.3v-15.3c0-1.8-1.5-3.3-3.3-3.3h-54.7
				C755.1,385.8,753.6,387.2,753.6,389.1z"/>
			<path class="st16" d="M878.4,385.8h-54.7c-1.8,0-3.3,1.5-3.3,3.3v15.3c0,1.8,1.5,3.3,3.3,3.3h54.7c1.8,0,3.3-1.5,3.3-3.3v-15.3
				C881.6,387.2,880.2,385.8,878.4,385.8z"/>
			<path class="st16" d="M945.2,385.8h-54.7c-1.8,0-3.3,1.5-3.3,3.3v15.3c0,1.8,1.5,3.3,3.3,3.3h54.7c1.8,0,3.3-1.5,3.3-3.3v-15.3
				C948.5,387.2,947,385.8,945.2,385.8z"/>
			<path class="st16" d="M662.8,433.8h54.7c1.8,0,3.3-1.5,3.3-3.3v-15.3c0-1.8-1.5-3.3-3.3-3.3h-54.7c-1.8,0-3.3,1.5-3.3,3.3v15.3
				C659.5,432.3,661,433.8,662.8,433.8z"/>
			<path class="st16" d="M729.6,433.8h54.7c1.8,0,3.3-1.5,3.3-3.3v-15.3c0-1.8-1.5-3.3-3.3-3.3h-54.7c-1.8,0-3.3,1.5-3.3,3.3v15.3
				C726.3,432.3,727.8,433.8,729.6,433.8z"/>
			<path class="st16" d="M854.4,430.5v-15.3c0-1.8-1.5-3.3-3.3-3.3h-54.7c-1.8,0-3.3,1.5-3.3,3.3v15.3c0,1.8,1.5,3.3,3.3,3.3h54.7
				C852.9,433.8,854.4,432.3,854.4,430.5z"/>
			<path class="st16" d="M920.4,430.5v-15.3c0-1.8-1.5-3.3-3.3-3.3h-54.7c-1.8,0-3.3,1.5-3.3,3.3v15.3c0,1.8,1.5,3.3,3.3,3.3h54.7
				C918.9,433.8,920.4,432.3,920.4,430.5z"/>
			<path class="st16" d="M686.7,440.7v15.3c0,1.8,1.5,3.3,3.3,3.3h54.7c1.8,0,3.3-1.5,3.3-3.3v-15.3c0-1.8-1.5-3.3-3.3-3.3H690
				C688.2,437.4,686.7,438.9,686.7,440.7z"/>
			<path class="st16" d="M756.9,437.4c-1.8,0-3.3,1.5-3.3,3.3v15.3c0,1.8,1.5,3.3,3.3,3.3h54.7c1.8,0,3.3-1.5,3.3-3.3v-15.3
				c0-1.8-1.5-3.3-3.3-3.3H756.9z"/>
			<path class="st16" d="M878.4,437.4h-54.7c-1.8,0-3.3,1.5-3.3,3.3v15.3c0,1.8,1.5,3.3,3.3,3.3h54.7c1.8,0,3.3-1.5,3.3-3.3v-15.3
				C881.6,438.9,880.2,437.4,878.4,437.4z"/>
			<path class="st16" d="M945.2,437.4h-54.7c-1.8,0-3.3,1.5-3.3,3.3v15.3c0,1.8,1.5,3.3,3.3,3.3h54.7c1.8,0,3.3-1.5,3.3-3.3v-15.3
				C948.5,438.9,947,437.4,945.2,437.4z"/>
			<path class="st16" d="M662.8,485.5h54.7c1.8,0,3.3-1.5,3.3-3.3v-15.3c0-1.8-1.5-3.3-3.3-3.3h-54.7c-1.8,0-3.3,1.5-3.3,3.3v15.3
				C659.5,484,661,485.5,662.8,485.5z"/>
			<path class="st16" d="M787.6,482.2v-15.3c0-1.8-1.5-3.3-3.3-3.3h-54.7c-1.8,0-3.3,1.5-3.3,3.3v15.3c0,1.8,1.5,3.3,3.3,3.3h54.7
				C786.1,485.5,787.6,484,787.6,482.2z"/>
			<path class="st16" d="M854.4,482.2v-15.3c0-1.8-1.5-3.3-3.3-3.3h-54.7c-1.8,0-3.3,1.5-3.3,3.3v15.3c0,1.8,1.5,3.3,3.3,3.3h54.7
				C852.9,485.5,854.4,484,854.4,482.2z"/>
			<path class="st16" d="M920.4,482.2v-15.3c0-1.8-1.5-3.3-3.3-3.3h-54.7c-1.8,0-3.3,1.5-3.3,3.3v15.3c0,1.8,1.5,3.3,3.3,3.3h54.7
				C918.9,485.5,920.4,484,920.4,482.2z"/>
			<path class="st16" d="M686.3,489.2c-1.8,0-3.3,1.5-3.3,3.3v15.3c0,1.8,1.5,3.3,3.3,3.3h54.7c1.8,0,3.3-1.5,3.3-3.3v-15.3
				c0-1.8-1.5-3.3-3.3-3.3H686.3z"/>
			<path class="st16" d="M753.1,511.1h54.7c1.8,0,3.3-1.5,3.3-3.3v-15.3c0-1.8-1.5-3.3-3.3-3.3h-54.7c-1.8,0-3.3,1.5-3.3,3.3v15.3
				C749.8,509.6,751.3,511.1,753.1,511.1z"/>
			<path class="st16" d="M819.9,511.1h54.7c1.8,0,3.3-1.5,3.3-3.3v-15.3c0-1.8-1.5-3.3-3.3-3.3h-54.7c-1.8,0-3.3,1.5-3.3,3.3v15.3
				C816.7,509.6,818.1,511.1,819.9,511.1z"/>
			<path class="st16" d="M941.4,489.2h-54.7c-1.8,0-3.3,1.5-3.3,3.3v15.3c0,1.8,1.5,3.3,3.3,3.3h54.7c1.8,0,3.3-1.5,3.3-3.3v-15.3
				C944.7,490.7,943.2,489.2,941.4,489.2z"/>
			<path class="st16" d="M713.7,515.3H659c-1.8,0-3.3,1.5-3.3,3.3v15.3c0,1.8,1.5,3.3,3.3,3.3h54.7c1.8,0,3.3-1.5,3.3-3.3v-15.3
				C717,516.8,715.5,515.3,713.7,515.3z"/>
			<path class="st16" d="M780.5,515.3h-54.7c-1.8,0-3.3,1.5-3.3,3.3v15.3c0,1.8,1.5,3.3,3.3,3.3h54.7c1.8,0,3.3-1.5,3.3-3.3v-15.3
				C783.8,516.8,782.3,515.3,780.5,515.3z"/>
			<path class="st16" d="M847.4,515.3h-54.7c-1.8,0-3.3,1.5-3.3,3.3v15.3c0,1.8,1.5,3.3,3.3,3.3h54.7c1.8,0,3.3-1.5,3.3-3.3v-15.3
				C850.6,516.8,849.2,515.3,847.4,515.3z"/>
			<path class="st16" d="M913.4,515.3h-54.7c-1.8,0-3.3,1.5-3.3,3.3v15.3c0,1.8,1.5,3.3,3.3,3.3h54.7c1.8,0,3.3-1.5,3.3-3.3v-15.3
				C916.6,516.8,915.2,515.3,913.4,515.3z"/>
		</g>
	</g>
	<path class="st17" d="M898.8,322.4c-17.6-9.5-31,5.3-50.8,1.5c-19.8-3.8-38.9-3.6-53-0.7c-14.1,2.9-43.7-12.6-70.5-4
		c-26.8,8.6-37.8-2.8-42.7,11.9c-3,8.9-5.5,24.6-5.4,39.1c-0.2,19.9,4.4,38.5,19.4,36.1c12.3-1.9,13.9-12.7,13.7-23.2
		c0.1-4.8-0.4-9.7-0.4-13.8c0.1-5.1,1.1-8.7,4.9-8.7c13.2,0,15,42,30.9,42c9.1,0,7.7-20.7,12.3-32.6c3.4-8.8,12.4-10,19.5-9.4
		c16.8,1.4,25.4,26.6,35.9,27.7c10.4,1.1,8.1-8.5,19.3-10.8c11.2-2.3,1.2,26.8,19.8,27.4c8.5,0.3,9.2-5.9,9.1-12.9
		c0-2.3-0.1-4.8-0.1-7.2c0.1-5.9,1.3-11,7.8-11.8c2.8-0.4,10.1-1.3,12.7,5.7c5.4,14.4-4.1,38.3,12.7,38.9c9.8,0.3,15.8-28,15.6-53.6
		C909.7,344.6,906.5,326.5,898.8,322.4z"/>
	<path class="st18" d="M1600,792H-0.5V566L0,437.4c0,0,118.6,47.2,211,39.3s154.8-40.4,288-42.4c133.2-2,334.8,33.6,440.9,27.4
		c106.1-6.1,299-72.4,391.1-58.6s269.1,34.3,269.1,34.3V792z"/>
	<path class="st19" d="M898.8,437.4c-5.3,0-10.3,1.9-14.3,4.8c-0.9-12.4-13.2-18.5-30.8-18.5c-16.4,0-29.9,13-32.7,25.3
		c-0.3,0-0.6,0-0.9,0c-9.5,0-17.7,6-21.7,12.9c-3-1.4-6.9-2.2-11.5-2.2c-10.5,0-19,9.3-19,17c0,7.7,10.7,11.9,21.2,11.9
		c6.3,0,10.7-3.6,13.1-8.1c5.2,3.4,13,5.2,20.7,5.2c9.6,0,15.5-6.4,18.1-13.6c5.2,1.4,10.8,2.1,16.5,2.1c8.4,0,14.8-3.6,19.2-8.8
		c4.4,5.7,14.7,8.8,24.8,8.8c13.4,0,19.7-12.5,19.7-22.2C921.3,442.2,912.2,437.4,898.8,437.4z"/>
</g>
</svg>
